<svg width="16" height="16" viewBox="0 0 16 16" fill="none" xmlns="http://www.w3.org/2000/svg">
<g clip-path="url(#clip0_1833_2993)">
<path d="M10.3182 8.59253L11.3282 14.2765C11.3395 14.3435 11.3301 14.4122 11.3012 14.4737C11.2724 14.5351 11.2255 14.5863 11.1668 14.6204C11.1081 14.6545 11.0404 14.6698 10.9727 14.6643C10.905 14.6589 10.8407 14.6329 10.7882 14.5899L8.40149 12.7985C8.28628 12.7125 8.14631 12.6659 8.00249 12.6659C7.85867 12.6659 7.71871 12.7125 7.60349 12.7985L5.21283 14.5892C5.16037 14.6322 5.09607 14.6581 5.02849 14.6636C4.96091 14.669 4.89327 14.6537 4.8346 14.6198C4.77593 14.5858 4.72901 14.5347 4.70011 14.4734C4.6712 14.4121 4.66168 14.3434 4.67283 14.2765L5.68216 8.59253M12 5.33276C12 7.5419 10.2091 9.33276 8 9.33276C5.79086 9.33276 4 7.5419 4 5.33276C4 3.12362 5.79086 1.33276 8 1.33276C10.2091 1.33276 12 3.12362 12 5.33276Z" stroke="white" stroke-linecap="round"/>
</g>
<defs>
<clipPath id="clip0_1833_2993">
<rect width="16" height="16" fill="white"/>
</clipPath>
</defs>
</svg>
